<?xml version="1.0"?>
<svg xmlns="http://www.w3.org/2000/svg" xmlns:xlink="http://www.w3.org/1999/xlink" xmlns:svgjs="http://svgjs.com/svgjs" version="1.1" width="512" height="512" x="0" y="0" viewBox="0 0 512 512" style="enable-background:new 0 0 512 512" xml:space="preserve" class=""><g><g xmlns="http://www.w3.org/2000/svg"><g><g><g><path d="m150.189 211.76h10.171c4.141 0 7.497-3.356 7.497-7.497s-3.356-7.497-7.497-7.497h-10.171c-4.141 0-7.497 3.356-7.497 7.497s3.356 7.497 7.497 7.497z" fill="#e6bf55" data-original="#000000" style="" class=""/><path d="m218.521 223.091h-68.332c-4.141 0-7.497 3.356-7.497 7.497s3.356 7.497 7.497 7.497h68.332c4.141 0 7.497-3.356 7.497-7.497s-3.356-7.497-7.497-7.497z" fill="#e6bf55" data-original="#000000" style="" class=""/><path d="m420.646 115.302h-125.508c-2.595 0-5.006 1.342-6.373 3.547-7.089 11.439-19.338 18.269-32.766 18.269s-25.677-6.83-32.766-18.269c-1.367-2.205-3.778-3.547-6.373-3.547h-125.506c-7.699 0-13.963 6.264-13.963 13.963v201.878c0 6.89 5.605 12.495 12.495 12.495h332.228c6.89 0 12.495-5.605 12.495-12.495v-136.773c0-4.141-3.356-7.497-7.497-7.497s-7.497 3.356-7.497 7.497v134.274h-15.402v-25.458c0-30.045-24.444-54.489-54.489-54.489-.016 0-.03 0-.046 0l-34.497.236c-30.045 0-54.488 24.444-54.488 54.489v25.222h-168.308v-198.348h120.499c10.073 13.737 25.895 21.816 43.116 21.816s33.043-8.079 43.116-21.816h120.499v29.28c0 4.141 3.356 7.497 7.497 7.497s7.497-3.356 7.497-7.497v-30.311c0-7.699-6.264-13.963-13.963-13.963zm-146.513 188.121c0-22.634 18.414-41.049 41.094-41.049l34.518-.236c22.624.012 41.028 18.422 41.028 41.049v25.458h-20.058v-22.966c0-3.711-3.009-6.72-6.72-6.72s-6.72 3.009-6.72 6.72v22.966h-49.645v-22.966c0-3.711-3.009-6.72-6.72-6.72s-6.72 3.009-6.72 6.72v22.966h-20.057z" fill="#e6bf55" data-original="#000000" style="" class=""/><path d="m498.465 365.953h-28.174v-264.898c0-12.716-10.345-23.06-23.061-23.06h-382.461c-12.716 0-23.061 10.344-23.061 23.06v264.898h-28.173c-7.463 0-13.535 6.072-13.535 13.535v9.362c0 24.9 20.258 45.156 45.157 45.156h112.702c4.141 0 7.497-3.356 7.497-7.497s-3.356-7.497-7.497-7.497h-112.702c-16.632 0-30.163-13.531-30.163-30.162v-7.902h482.012v7.902c0 16.631-13.531 30.162-30.163 30.162h-274.312c-4.141 0-7.497 3.356-7.497 7.497s3.356 7.497 7.497 7.497h274.311c24.9 0 45.157-20.257 45.157-45.156v-9.362c.001-7.463-6.071-13.535-13.534-13.535zm-43.168 0h-398.594v-264.898c0-4.447 3.619-8.066 8.066-8.066h382.462c4.448 0 8.066 3.619 8.066 8.066z" fill="#e6bf55" data-original="#000000" style="" class=""/><circle cx="256" cy="114.452" r="7.497" fill="#e6bf55" data-original="#000000" style="" class=""/><path d="m262.415 248.479v-62.109c0-13.437-10.931-24.369-24.369-24.369h-107.38c-13.437 0-24.37 10.931-24.37 24.369v62.109c0 13.437 10.931 24.369 24.369 24.369h55.838c6.066 20.354 24.015 29.484 34.365 33.151 9.064 3.211 18.059-5.963 14.409-15.056-2.34-5.829-3.435-12.675-3.943-18.095h6.712c13.437.001 24.369-10.931 24.369-24.369zm-33.761 7.947c-3.849 0-7.564 1.612-10.191 4.423-2.63 2.813-3.989 6.631-3.728 10.475.274 4.076.843 9.267 1.996 14.656-10.058-6.212-13.578-14.166-14.808-18.974-1.593-6.229-7.159-10.58-13.535-10.58h-57.724c-4.381 0-7.945-3.565-7.945-7.946v-62.109c0-4.381 3.565-7.945 7.946-7.945h107.38c4.381 0 7.945 3.564 7.945 7.945v62.109c0 4.381-3.564 7.946-7.945 7.946z" fill="#e6bf55" data-original="#000000" style="" class=""/><path d="m293.44 198.106c0 21.504 17.494 38.999 38.999 38.999s39-17.494 39-38.999-17.495-38.999-39-38.999c-21.505.001-38.999 17.495-38.999 38.999zm64.558 0c0 14.093-11.466 25.559-25.56 25.559-14.093 0-25.558-11.465-25.558-25.559 0-14.093 11.465-25.558 25.558-25.558s25.56 11.465 25.56 25.558z" fill="#e6bf55" data-original="#000000" style="" class=""/></g></g></g></g></g></svg>
